Exact Audio Copy V0.99 prebeta 5 from 4. May 2009

EAC 取り込みログファイル 日付 : 29. 3月 2010, 11:23

- / GWAVE 2009 1st Ace

使用ドライブ   : HL-DT-STDVD-RAM GSA-H58N   Adapter: 1  ID: 0

読み込みモード                       : セキュアモード
ドライブが正確なデータ転送能力を持つ : はい
オーディオキャッシュを使用できる     : いいえ
C2エラー情報を検出する               : いいえ

読み込みサンプルオフセット訂正値             : 102
リードイン・リードアウトをオーバーリードする : いいえ
欠落したオフセットサンプルを無音で補完する   : はい
曲の先頭と末端の無音領域を削除する           : いいえ
CRC計算で無音のサンプルを使用するか          : はい
使用インターフェース                         : Win NT & 2000用のクラスドライバ

使用出力モード       : 内蔵WAV出力ルーチン
サンプルフォーマット : 44.100 Hz; 16 Bit; ステレオ


TOC情報を抜き出します

     トラック | スタート |   長さ   | 始めのセクター | 最終セクター 
    ----------------------------------------------------------------
         1    |  0:00.00 |  3:42.71 |          0     |     16720    
         2    |  3:42.71 |  4:48.43 |      16721     |     38363    
         3    |  8:31.39 |  4:08.15 |      38364     |     56978    
         4    | 12:39.54 |  4:09.29 |      56979     |     75682    
         5    | 16:49.08 |  4:46.31 |      75683     |     97163    
         6    | 21:35.39 |  3:22.29 |      97164     |    112342    
         7    | 24:57.68 |  5:13.66 |     112343     |    135883    
         8    | 30:11.59 |  4:12.62 |     135884     |    154845    
         9    | 34:24.46 |  4:27.63 |     154846     |    174933    
        10    | 38:52.34 |  4:20.55 |     174934     |    194488    
        11    | 43:13.14 |  4:25.44 |     194489     |    214407    
        12    | 47:38.58 |  5:39.07 |     214408     |    239839    
        13    | 53:17.65 |  4:35.05 |     239840     |    260469    
        14    | 57:52.70 |  4:03.17 |     260470     |    278711    
        15    | 61:56.12 |  4:01.45 |     278712     |    296831    
        16    | 65:57.57 |  3:52.71 |     296832     |    314302    


範囲取り込みステータス & エラー

選択された範囲

     ファイル名 L:\EAC\GWAVE 2009 1st Ace (tak)\GWAVE 2009 1st Ace.wav

     ピークレベル 100.0 %
     範囲取り込み品質 99.9 %
     コピーCRC FE77F673
     コピー OK

エラーは発生しませんでした

ステータス報告完了
